<svg width="28" height="28" viewBox="0 0 28 28" fill="none" xmlns="http://www.w3.org/2000/svg">
<path d="M22.7275 6.61414L23.3867 5.9198C23.7207 5.56824 23.7471 5.08484 23.4131 4.75086L23.1846 4.51355C22.8857 4.21472 22.3848 4.25867 22.0596 4.58386L21.374 5.25183L22.7275 6.61414ZM12.3213 15.9657L14.123 15.2098L22.0859 7.24695L20.7324 5.90222L12.7695 13.8739L11.9785 15.6141C11.8906 15.8163 12.1191 16.0448 12.3213 15.9657ZM8.98145 21.8632H19.2207C20.9082 21.8632 21.9014 20.8788 21.9014 18.9979V9.71668L20.1436 11.4657V18.8397C20.1436 19.6835 19.6953 20.1053 19.1064 20.1053H9.0957C8.28711 20.1053 7.84766 19.6835 7.84766 18.8397V9.07508C7.84766 8.23133 8.28711 7.80945 9.0957 7.80945H16.5576L18.3066 6.05164H8.98145C7.08301 6.05164 6.08984 7.03601 6.08984 8.91687V18.9979C6.08984 20.8788 7.08301 21.8632 8.98145 21.8632Z" fill="#1C1C1E"/>
</svg>
