<svg width="93" height="31" viewBox="0 0 93 31" fill="none" xmlns="http://www.w3.org/2000/svg">
<path d="M7.20659 11.4243C7.20659 12.2934 6.50697 12.9926 5.63738 12.9926C4.76779 12.9926 4.06812 12.2934 4.06812 11.4243C4.06812 10.5552 4.76779 9.85596 5.63738 9.85596C6.50697 9.85596 7.20659 10.5552 7.20659 11.4243Z" fill="#231F20"/>
<path d="M11.1647 11.4243C11.1647 12.2934 10.465 12.9926 9.59539 12.9926C8.7258 12.9926 8.02612 12.2934 8.02612 11.4243C8.02612 10.5552 8.7258 9.85596 9.59539 9.85596C10.465 9.85596 11.1647 10.5552 11.1647 11.4243Z" fill="#231F20"/>
<path d="M15.0127 11.4243C15.0127 12.2934 14.3131 12.9926 13.4435 12.9926C12.5739 12.9926 11.8743 12.2934 11.8743 11.4243C11.8743 10.5552 12.5739 9.85596 13.4435 9.85596C14.3131 9.85596 15.0127 10.5552 15.0127 11.4243Z" fill="#231F20"/>
<path d="M7.20659 7.56833C7.20659 8.43741 6.50697 9.13668 5.63738 9.13668C4.76779 9.13668 4.06812 8.43741 4.06812 7.56833C4.06812 6.69925 4.76779 6 5.63738 6C6.50697 6 7.20659 6.69925 7.20659 7.56833Z" fill="#231F20"/>
<path d="M15.0127 7.56833C15.0127 8.43741 14.3131 9.13668 13.4435 9.13668C12.5739 9.13668 11.8743 8.43741 11.8743 7.56833C11.8743 6.69925 12.5739 6 13.4435 6C14.3131 6 15.0127 6.69925 15.0127 7.56833Z" fill="#231F20"/>
<path d="M11.1647 15.2903C11.1647 16.1594 10.465 16.8586 9.59539 16.8586C8.7258 16.8586 8.02612 16.1594 8.02612 15.2903C8.02612 14.4212 8.7258 13.7219 9.59539 13.7219C10.465 13.7219 11.1647 14.4212 11.1647 15.2903Z" fill="#231F20"/>
<path d="M15.0127 15.2903C15.0127 16.1594 14.3131 16.8586 13.4435 16.8586C12.5739 16.8586 11.8743 16.1594 11.8743 15.2903C11.8743 14.4212 12.5739 13.7219 13.4435 13.7219C14.3131 13.7219 15.0127 14.4212 15.0127 15.2903Z" fill="#231F20"/>
<path d="M0.0100051 19.4358H2.00906L3.6383 25.0498L5.26748 19.4358H7.26654L4.52784 27.4873H2.7387L0 19.4358H0.0100051Z" fill="#231F20"/>
<path d="M8.5459 19.4358H10.5259V27.4873H8.5459V19.4358Z" fill="#231F20"/>
<path d="M12.5442 19.4358H14.5232V20.7344C15.1829 19.7954 16.0125 19.3159 17.0221 19.3159C18.5114 19.3159 19.5009 20.165 19.5009 21.7433V27.4973H17.5218V22.3327C17.5218 21.4537 17.142 21.0041 16.3724 21.0041C15.3529 21.0041 14.5332 22.2528 14.5332 24.2807V27.4973H12.5542V19.4458L12.5442 19.4358Z" fill="#231F20"/>
<path d="M27.6569 16.1792H28.6765V27.4972H27.6569V26.4383C27.2271 27.0776 26.1676 27.6171 25.1481 27.6171C24.0086 27.6171 23.1291 27.2375 22.4894 26.4483C21.8697 25.6691 21.5498 24.6602 21.5498 23.4615C21.5498 22.2627 21.8697 21.2738 22.4894 20.4846C23.1291 19.7055 24.0086 19.3059 25.1481 19.3059C26.0277 19.3059 27.0872 19.8153 27.6569 20.5645V16.1692V16.1792ZM25.1981 26.6981C26.8573 26.6981 27.7869 25.3695 27.7869 23.4715C27.7869 22.5325 27.567 21.7633 27.0972 21.1539C26.6474 20.5446 26.0077 20.2449 25.1981 20.2449C24.3884 20.2449 23.7388 20.5446 23.279 21.1539C22.8192 21.7633 22.5893 22.5325 22.5893 23.4715C22.5893 25.3695 23.5288 26.6981 25.1981 26.6981Z" fill="#231F20"/>
<path d="M37.8222 23.4615H31.7451C31.7451 25.3795 32.7046 26.6881 34.2839 26.6881C35.5033 26.6881 36.173 26.1886 36.7627 24.9599L37.6423 25.3895C36.8227 26.9878 35.8232 27.6071 34.2839 27.6071C33.2144 27.6071 32.3448 27.2275 31.6951 26.4383C31.0354 25.6592 30.7056 24.6502 30.7056 23.4515C30.7056 22.2528 31.0454 21.2638 31.6951 20.4747C32.3548 19.6955 33.2144 19.2959 34.2839 19.2959C35.3534 19.2959 36.173 19.6355 36.8227 20.3148C37.4824 21.0041 37.8122 21.8932 37.8122 23.002V23.4515L37.8222 23.4615ZM31.8051 22.5325H36.7927C36.6028 21.114 35.7032 20.2349 34.2839 20.2349C32.9845 20.2349 32.075 21.1739 31.8051 22.5325Z" fill="#231F20"/>
<path d="M40.7808 20.0552C41.3405 19.5557 42.0402 19.306 42.8898 19.306C43.4195 19.306 43.9093 19.4159 44.3791 19.6556L45.8984 18.8564L46.678 20.1651L45.5285 20.7444C45.7384 21.1141 45.8484 21.5436 45.8484 22.0231C45.8484 22.8422 45.5585 23.4915 44.9988 23.991C44.439 24.4705 43.7394 24.7103 42.8898 24.7103C42.49 24.7103 42.0902 24.6503 41.7203 24.5304C41.4605 24.6703 41.3405 24.8801 41.3405 25.1398C41.3405 25.5394 41.6004 25.7292 42.0902 25.7292H43.7394C45.4686 25.7292 46.568 26.5783 46.568 28.0967C46.568 28.716 46.3781 29.2455 46.0083 29.675C45.2587 30.5541 44.1892 30.8737 42.9098 30.8737C41.8403 30.8737 40.9607 30.654 40.271 30.1845C39.6013 29.7249 39.2615 29.0657 39.2615 28.2165C39.2615 27.5572 39.4814 27.0178 39.9212 26.6182C39.6513 26.2786 39.5014 25.869 39.5014 25.3696C39.5014 24.6303 39.8412 24.0709 40.4909 23.6714C40.1211 23.2118 39.9312 22.6624 39.9312 22.0131C39.9312 21.194 40.221 20.5447 40.7808 20.0452V20.0552ZM42.2001 27.3874C41.8303 27.3874 41.5304 27.3674 41.2705 27.3275C41.1606 27.5073 41.0906 27.747 41.0906 28.0667C41.0906 28.8159 41.8103 29.2155 42.8998 29.2155C43.9893 29.2155 44.579 28.8758 44.579 28.2265C44.579 27.6671 44.1492 27.3974 43.2796 27.3974H42.1901L42.2001 27.3874ZM42.8898 23.102C43.5295 23.102 43.9893 22.6524 43.9893 22.0131C43.9893 21.3738 43.5295 20.8943 42.8898 20.8943C42.2501 20.8943 41.7903 21.3538 41.7903 22.0131C41.7903 22.6724 42.2501 23.102 42.8898 23.102Z" fill="#231F20"/>
<path d="M47.7876 21.5435C48.0475 20.205 49.247 19.3059 50.8562 19.3059C53.1151 19.3059 54.2446 20.4247 54.2446 22.6823V27.4973H52.6154L52.4055 26.4783C51.7857 27.2475 50.9462 27.6271 49.9266 27.6271C48.5073 27.6271 47.4778 26.7281 47.4778 25.1797C47.4778 23.6313 48.8671 22.5425 50.9162 22.5425H52.2555V22.1929C52.2555 21.4137 51.7957 21.0141 50.8462 21.0141C50.1265 21.0141 49.6667 21.3138 49.4568 21.9431L47.7776 21.5635L47.7876 21.5435ZM50.3964 25.9189C50.8962 25.9189 51.3259 25.7591 51.6958 25.4594C52.0756 25.1597 52.2755 24.7601 52.2755 24.2607V24.1008H50.9461C50.0366 24.1008 49.5668 24.4505 49.5668 25.1397C49.5668 25.5693 49.8666 25.9189 50.3964 25.9189Z" fill="#231F20"/>
<path d="M58.1326 27.4873H56.1536V19.4358H58.1326V20.7444C58.7123 19.8354 59.5719 19.3059 60.5115 19.3059C60.8114 19.3059 61.1312 19.3559 61.491 19.4657L61.1212 21.3038C60.8813 21.1639 60.5915 21.084 60.2916 21.084C59.0322 21.084 58.1326 22.1829 58.1326 24.6303V27.4873Z" fill="#231F20"/>
<path d="M67.9679 20.175V16.1792H69.947V27.4972H67.9679V26.6681C67.7081 27.1276 66.9284 27.6271 66.0188 27.6271C63.65 27.6271 62.3406 26.0088 62.3406 23.4715C62.3406 20.9342 63.65 19.3159 66.0188 19.3159C66.7985 19.3159 67.5981 19.7155 67.9679 20.175ZM64.4196 23.4715C64.4196 24.2407 64.5995 24.85 64.9493 25.2796C65.2992 25.7091 65.749 25.9389 66.2887 25.9389C66.8285 25.9389 67.2782 25.7291 67.6181 25.2995C67.9679 24.87 68.1478 24.2606 68.1478 23.4815C68.1478 22.7023 67.9679 22.1029 67.6181 21.6734C67.2782 21.2438 66.8385 21.0141 66.2887 21.0141C65.739 21.0141 65.2992 21.2338 64.9493 21.6734C64.5995 22.1029 64.4196 22.7123 64.4196 23.4815V23.4715Z" fill="#231F20"/>
<path d="M79.3527 24.1008H73.8053C73.8553 25.0798 74.555 25.9189 75.7044 25.9189C76.524 25.9189 77.1737 25.4993 77.6535 24.6702L79.2527 25.2596C78.5631 26.8279 77.3537 27.6071 75.5945 27.6071C72.8258 27.6071 71.7263 25.3695 71.7263 23.4515C71.7263 21.5335 72.8258 19.2959 75.5945 19.2959C76.8739 19.2959 77.9134 19.8253 78.4931 20.6345C79.0728 21.4137 79.3527 22.3626 79.3527 23.2717V24.0908V24.1008ZM73.8553 22.5325H77.3237C77.1038 21.5136 76.5241 20.9941 75.5945 20.9941C74.6649 20.9941 73.9953 21.6834 73.8553 22.5325Z" fill="#231F20"/>
</svg>
