<?xml version="1.0" encoding="UTF-8"?><svg id="b" xmlns="http://www.w3.org/2000/svg" viewBox="0 0 91.89 28.83"><g id="c"><path d="m8.33,6.29c0,1-.81,1.82-1.82,1.82s-1.82-.81-1.82-1.82.81-1.82,1.82-1.82,1.82.82,1.82,1.82" style="fill:#231f20;"/><path d="m12.92,6.29c0,1-.82,1.82-1.82,1.82s-1.82-.81-1.82-1.82.81-1.82,1.82-1.82,1.82.82,1.82,1.82" style="fill:#231f20;"/><path d="m17.38,6.29c0,1-.81,1.82-1.82,1.82s-1.82-.81-1.82-1.82.81-1.82,1.82-1.82,1.82.82,1.82,1.82" style="fill:#231f20;"/><path d="m8.33,1.82c0,1-.81,1.82-1.82,1.82s-1.82-.81-1.82-1.82.81-1.82,1.82-1.82,1.82.81,1.82,1.82" style="fill:#231f20;"/><path d="m17.38,1.82c0,1-.81,1.82-1.82,1.82s-1.82-.81-1.82-1.82.81-1.82,1.82-1.82,1.82.81,1.82,1.82" style="fill:#231f20;"/><path d="m12.92,10.77c0,1-.82,1.82-1.82,1.82s-1.82-.81-1.82-1.82.81-1.82,1.82-1.82,1.82.82,1.82,1.82" style="fill:#231f20;"/><path d="m17.38,10.77c0,1-.81,1.82-1.82,1.82s-1.82-.81-1.82-1.82.81-1.82,1.82-1.82,1.82.82,1.82,1.82" style="fill:#231f20;"/><path d="m0,15.57h2.32l1.89,6.5,1.89-6.5h2.32l-3.17,9.33h-2.07L0,15.57Z" style="fill:#231f20;"/><path d="m9.89,15.57h2.3v9.33h-2.3v-9.33Z" style="fill:#231f20;"/><path d="m14.52,15.57h2.3v1.5c.76-1.09,1.72-1.65,2.89-1.65,1.72,0,2.87.98,2.87,2.82v6.67h-2.3v-5.98c0-1.02-.44-1.54-1.33-1.54-1.19,0-2.13,1.44-2.13,3.8v3.72h-2.3v-9.33Z" style="fill:#231f20;"/><path d="m32.02,11.8h1.19v13.11h-1.19v-1.22c-.5.74-1.72,1.37-2.91,1.37-1.31,0-2.33-.44-3.07-1.35-.72-.91-1.09-2.07-1.09-3.46s.37-2.54,1.09-3.44c.74-.91,1.76-1.37,3.07-1.37,1.02,0,2.24.59,2.91,1.46v-5.09Zm-2.85,12.19c1.93,0,3-1.54,3-3.74,0-1.09-.26-1.98-.8-2.69-.52-.7-1.26-1.06-2.2-1.06s-1.69.35-2.22,1.06c-.54.7-.8,1.59-.8,2.69,0,2.2,1.09,3.74,3.02,3.74Z" style="fill:#231f20;"/><path d="m43.8,20.24h-7.04c0,2.22,1.11,3.74,2.94,3.74,1.41,0,2.19-.57,2.87-2l1.02.5c-.94,1.85-2.11,2.57-3.89,2.57-1.24,0-2.24-.44-3-1.35-.76-.91-1.15-2.07-1.15-3.46s.39-2.54,1.15-3.44c.76-.91,1.76-1.37,3-1.37s2.19.39,2.94,1.19c.76.8,1.15,1.83,1.15,3.11v.52Zm-6.96-1.07h5.78c-.22-1.65-1.26-2.67-2.91-2.67-1.5,0-2.56,1.09-2.87,2.67Z" style="fill:#231f20;"/><path d="m47.22,16.3c.65-.57,1.46-.87,2.44-.87.61,0,1.19.13,1.72.41l1.76-.93.91,1.52-1.33.67c.24.43.37.93.37,1.48,0,.94-.33,1.7-.98,2.28-.65.56-1.46.83-2.44.83-.46,0-.93-.07-1.35-.2-.3.17-.44.41-.44.7,0,.46.3.69.87.69h1.91c2,0,3.28.98,3.28,2.74,0,.72-.22,1.33-.65,1.83-.87,1.02-2.11,1.39-3.59,1.39-1.24,0-2.26-.26-3.06-.8-.78-.54-1.17-1.3-1.17-2.28,0-.76.26-1.39.76-1.85-.31-.39-.48-.87-.48-1.44,0-.85.39-1.5,1.15-1.96-.43-.54-.65-1.17-.65-1.93,0-.94.33-1.7.98-2.28Zm1.65,8.5c-.43,0-.78-.02-1.07-.07-.13.2-.2.48-.2.85,0,.87.83,1.33,2.09,1.33s1.95-.39,1.95-1.15c0-.65-.5-.96-1.5-.96h-1.26Zm.8-4.96c.74,0,1.28-.52,1.28-1.26s-.54-1.3-1.28-1.3-1.28.54-1.28,1.3.54,1.26,1.28,1.26Z" style="fill:#231f20;"/><path d="m55.33,18.02c.3-1.56,1.69-2.59,3.56-2.59,2.61,0,3.93,1.3,3.93,3.91v5.57h-1.89l-.24-1.19c-.72.89-1.68,1.33-2.87,1.33-1.65,0-2.83-1.04-2.83-2.83s1.61-3.06,3.98-3.06h1.56v-.41c0-.91-.54-1.37-1.63-1.37-.83,0-1.37.35-1.61,1.07l-1.95-.44Zm3.02,5.07c.57,0,1.07-.19,1.5-.54.44-.35.67-.81.67-1.39v-.18h-1.54c-1.06,0-1.59.41-1.59,1.2,0,.5.35.91.96.91Z" style="fill:#231f20;"/><path d="m67.31,24.91h-2.3v-9.33h2.3v1.52c.67-1.06,1.67-1.67,2.76-1.67.35,0,.72.06,1.13.19l-.43,2.13c-.28-.17-.61-.26-.96-.26-1.46,0-2.5,1.28-2.5,4.11v3.31Z" style="fill:#231f20;"/><path d="m78.7,16.43v-4.63h2.3v13.11h-2.3v-.96c-.3.54-1.2,1.11-2.26,1.11-2.74,0-4.26-1.87-4.26-4.81s1.52-4.82,4.26-4.82c.91,0,1.83.46,2.26,1Zm-4.11,3.82c0,.89.2,1.59.61,2.09.41.5.93.76,1.56.76s1.15-.24,1.54-.74c.41-.5.61-1.2.61-2.11s-.2-1.59-.61-2.09c-.39-.5-.91-.76-1.54-.76s-1.15.26-1.56.76c-.41.5-.61,1.2-.61,2.09Z" style="fill:#231f20;"/><path d="m91.89,20.98h-6.43c.06,1.13.87,2.11,2.2,2.11.94,0,1.7-.48,2.26-1.44l1.85.69c-.8,1.82-2.2,2.72-4.24,2.72-3.2,0-4.48-2.59-4.48-4.81s1.28-4.82,4.48-4.82c1.48,0,2.68.61,3.35,1.56.67.91,1,2,1,3.06v.94Zm-6.37-1.81h4.02c-.26-1.19-.93-1.78-2-1.78s-1.85.8-2.02,1.78Z" style="fill:#231f20;"/></g></svg>